<?xml version="1.0" standalone="no"?>
<!DOCTYPE svg PUBLIC "-//W3C//DTD SVG 20010904//EN"
 "http://www.w3.org/TR/2001/REC-SVG-20010904/DTD/svg10.dtd">
<svg version="1.0" xmlns="http://www.w3.org/2000/svg"
 width="256.000000pt" height="256.000000pt" viewBox="0 0 256.000000 256.000000"
 preserveAspectRatio="xMidYMid meet">
<metadata>
Created by potrace 1.11, written by Peter Selinger 2001-2013
</metadata>
<g transform="translate(0.000000,256.000000) scale(0.100000,-0.100000)"
fill="#000000" stroke="none">
<path d="M799 1962 c-13 -15 -56 -63 -94 -107 -39 -44 -79 -89 -90 -101 -11
-11 -42 -47 -70 -80 -27 -32 -70 -81 -95 -109 -25 -27 -49 -55 -55 -61 -33
-36 -147 -164 -170 -189 -15 -16 -64 -68 -109 -115 -119 -125 -121 -129 -41
-85 39 21 75 42 80 46 6 4 68 36 140 72 176 88 257 100 392 57 50 -16 80 -40
193 -152 52 -51 109 -104 127 -116 39 -28 125 -34 227 -16 134 23 200 14 306
-42 223 -119 277 -132 360 -87 45 24 71 53 114 126 l22 38 23 -20 c24 -21 148
-132 192 -172 127 -117 237 -219 261 -242 49 -46 42 -30 -22 50 -89 113 -412
544 -590 788 -84 115 -159 216 -167 223 -11 11 -44 -18 -207 -185 l-194 -198
-27 25 c-52 48 -192 248 -369 522 -48 75 -93 141 -100 147 -8 7 -19 2 -37 -17z"/>
</g>
</svg>
